<svg id="Layer_1" data-name="Layer 1" xmlns="http://www.w3.org/2000/svg" viewBox="0 0 1094.11 661.5"><defs><style>.cls-1{fill:#ffe900;}.cls-2{fill:none;}</style></defs><title>namebar</title><g id="dots"><path class="cls-1" d="M785.9,220.54C797,221,808,222,819,223c3,0,6,2,9,2,31,3,60,9,90,17,72,20,140,48,214,47h19c9-1,18-3,28-4,9-2,18-5,27-7,15-5,29-10,43-16,55-24,109-53,170-56,30-1,60,4,87,20l3,3c44,28,61,79,63,127a214.9,214.9,0,0,1-7,56c-4,17-7,33-13,50a209.52,209.52,0,0,0-9,61c2,54,32,101,51,151,14,39,23,82,4,121-23,44-71,61-118,69a364.87,364.87,0,0,1-66,3c-11-1-22-2-34-3-21-3-41-6-62-11l-9-3c-7-2-13-2-20-4-43-12-83-22-127-29-16-3-32-6-48-7a66,66,0,0,1-14-1c-71-5-140-7-211-4-48,3-93,14-142,25-64,13-129,18-184-23-17-13-30-29-38-49-7-18-9-37-10-56-2-58,7-115,26-170,14-38,27-73,35-114,3-16,4-31,5-47,1-24-2-46-4-70-2-20-2-40,9-57a57.61,57.61,0,0,1,31-22c36-10,73-8,108.76-4.91" transform="translate(-514.73 -205.88)"/><path class="cls-2" d="M717.51,216.4Q752.64,218,787.69,221" transform="translate(-514.73 -205.88)"/></g></svg>